<svg xmlns="http://www.w3.org/2000/svg" viewBox="0 0 120 90" width="120" height="90">
<style>
  .ln{fill:none;stroke:#000;stroke-width:2.4;stroke-linecap:round;stroke-linejoin:round}
  .ln-thin{fill:none;stroke:#000;stroke-width:1.3;stroke-linecap:round}
  .fill-paper{fill:#E6E0CE}
</style>
<defs><pattern id="hatch" width="7" height="7" patternUnits="userSpaceOnUse" patternTransform="rotate(38)">
  <line x1="0" y1="0" x2="0" y2="7" stroke="#000" stroke-width="1.1"/></pattern></defs>
<path class="ln fill-paper" d="M60 24c22 0 34 14 34 30s-15 26-34 26-34-10-34-26 12-30 34-30z"/>
          <path class="ln fill-paper" d="M60 26c-2-9-9-13-17-12 0 9 8 14 17 12z"/>
          <path class="ln fill-paper" d="M60 26c2-9 9-13 17-12 0 9-8 14-17 12z"/>
          <path class="ln" d="M60 26v-9"/>
          <circle class="ln-thin fill-paper" cx="60" cy="54" r="17"/>
          <path class="ln-thin" d="M60 54V44M60 54l8 6"/>
          <path class="ln-thin" d="M34 46c-2 5-3 9-2 13"/>
</svg>
